<?xml version="1.0" encoding="utf-8"?>
<!-- Generator: Adobe Illustrator 24.2.1, SVG Export Plug-In . SVG Version: 6.00 Build 0)  -->
<svg version="1.1" id="Calque_1" xmlns="http://www.w3.org/2000/svg" xmlns:xlink="http://www.w3.org/1999/xlink" x="0px" y="0px"
	 viewBox="0 0 152.6 60.1" style="enable-background:new 0 0 152.6 60.1;" xml:space="preserve">
<style type="text/css">
	.st0{fill:#004F9F;}
</style>
<rect x="10.4" y="33.3" class="st0" width="25.4" height="4.7"/>
<path class="st0" d="M48.2,58.4c-2.8,1.1-5.9,1.7-9.1,1.7c-13.5,0-24.4-10.9-24.4-24.4c0-13.5,10.9-24.4,24.4-24.4
	c3.4,0,6.7,0.7,9.6,2l-1.8,4.3c-2.4-1-5-1.6-7.8-1.6c-10.9,0-19.8,8.9-19.8,19.8s8.9,19.8,19.8,19.8c2.6,0,5.1-0.5,7.4-1.4
	L48.2,58.4z"/>
<polygon class="st0" points="39.2,26.3 43.7,26.3 52.8,39.5 52.8,26.3 56.8,26.3 56.8,44.4 52.4,44.4 43.2,31.3 43.2,44.4 
	39.2,44.4 "/>
<polygon class="st0" points="61,26.3 72.7,26.3 72.7,29.6 65,29.6 65,33.8 72.3,33.8 72.3,37 65,37 65,41.2 72.7,41.2 72.7,44.4 
	61,44.4 "/>
<path class="st0" d="M82.5,34.9c1.1,0,2.4-0.1,3.2-0.8c0.6-0.5,1-1.2,1-2c0-0.8-0.4-1.6-1.2-2c-0.9-0.6-1.9-0.6-3-0.6h-2.2v5.4H82.5
	z M76.3,26.3h6.3c2.1,0,4,0.1,5.7,1.3c1.6,1.1,2.5,2.8,2.5,4.4c0,1.3-0.7,3-1.8,3.9c-1.1,1-2.4,1.5-3.9,1.7l5.9,6.7h-5l-5.7-6.9v6.9
	h-4V26.3z"/>
<path class="st0" d="M109.8,39.5c-1.4,3.3-4.9,5.4-8.4,5.4c-5.2,0-9.4-4.3-9.4-9.5c0-5.1,4.2-9.4,9.3-9.4c3.6,0,7.2,2.1,8.6,5.5
	h-3.8c-1.1-1.4-2.9-2.2-4.7-2.2c-3.3,0-5.9,2.9-5.9,6.2c0,3.2,2.7,6.1,6,6.1c1.8,0,3.3-0.8,4.6-2.1H109.8z"/>
<path class="st0" d="M121.3,36.5l-1.9-5.5l-1.9,5.5H121.3z M118.1,26.3h2.6l7.6,18.1h-3.7l-2-4.7h-6.4l-2,4.7h-3.7L118.1,26.3z"/>
<polygon class="st0" points="130.1,26.3 130.1,44.4 142.4,44.4 142.4,41.2 134.8,41.2 134.8,26.3 "/>
<polygon class="st0" points="56.2,52.2 56.2,47.4 57.1,47.4 57.1,51.4 59.2,51.4 59.2,52.2 "/>
<polygon class="st0" points="58.9,47.4 58.9,49 59.8,48.3 59.8,47.4 "/>
<path class="st0" d="M62.5,47h-0.6l0.4-1.1h0.9L62.5,47z M60.8,52.2v-4.7h3.1v0.8h-2.2v1.1h1.9v0.8h-1.9v1.2h2.2v0.8H60.8z"/>
<polygon class="st0" points="67.6,52.2 65.7,49.3 65.7,52.2 64.8,52.2 64.8,47.4 65.6,47.4 67.5,50.3 67.5,47.4 68.4,47.4 
	68.4,52.2 "/>
<polygon class="st0" points="69.5,52.2 69.5,47.4 72.7,47.4 72.7,48.3 70.5,48.3 70.5,49.4 72.3,49.4 72.3,50.2 70.5,50.2 
	70.5,51.4 72.7,51.4 72.7,52.2 "/>
<path class="st0" d="M75.4,48.3h-0.9v1.2h0.9c0.4,0,0.7-0.3,0.7-0.6C76,48.5,75.8,48.3,75.4,48.3 M76.1,52.2l-0.9-1.9h-0.7v1.9h-0.9
	v-4.7h1.9c1,0,1.5,0.7,1.5,1.4c0,0.7-0.4,1.1-0.9,1.2l1.1,2H76.1z"/>
<path class="st0" d="M80.8,51.7c-0.4,0.4-0.8,0.5-1.3,0.5c-0.5,0-0.9-0.2-1.3-0.5c-0.5-0.5-0.5-1.1-0.5-1.9c0-0.8,0-1.4,0.5-1.9
	c0.3-0.3,0.7-0.5,1.3-0.5c1.1,0,1.7,0.7,1.8,1.5h-0.9c-0.1-0.4-0.4-0.7-0.9-0.7c-0.3,0-0.5,0.1-0.6,0.3c-0.2,0.2-0.2,0.4-0.2,1.3
	s0,1.1,0.2,1.3c0.1,0.2,0.3,0.2,0.6,0.2c0.3,0,0.5-0.1,0.7-0.3c0.2-0.2,0.2-0.4,0.2-0.6v-0.2h-0.9v-0.8h1.8v0.7
	C81.3,50.9,81.2,51.3,80.8,51.7"/>
<rect x="82.2" y="47.4" class="st0" width="0.9" height="4.7"/>
<polygon class="st0" points="84.2,52.2 84.2,47.4 87.4,47.4 87.4,48.3 85.2,48.3 85.2,49.4 87,49.4 87,50.2 85.2,50.2 85.2,51.4 
	87.4,51.4 87.4,52.2 "/>
<path class="st0" d="M92.1,48.6c-0.2-0.2-0.4-0.3-0.7-0.3h-0.7v3.1h0.7c0.3,0,0.5-0.1,0.7-0.3c0.2-0.2,0.2-0.6,0.2-1.3
	S92.3,48.8,92.1,48.6 M92.8,51.7c-0.3,0.3-0.8,0.5-1.2,0.5h-1.7v-4.7h1.7c0.5,0,0.9,0.1,1.2,0.5c0.5,0.5,0.5,1.2,0.5,1.9
	S93.3,51.2,92.8,51.7"/>
<polygon class="st0" points="94.2,52.2 94.2,47.4 97.3,47.4 97.3,48.3 95.1,48.3 95.1,49.4 97,49.4 97,50.2 95.1,50.2 95.1,51.4 
	97.3,51.4 97.3,52.2 "/>
<polygon class="st0" points="101.6,48.3 101.6,52.2 100.6,52.2 100.6,48.3 99.4,48.3 99.4,47.4 102.8,47.4 102.8,48.3 "/>
<path class="st0" d="M105.6,48.5c-0.1-0.2-0.3-0.3-0.6-0.3c-0.3,0-0.5,0.1-0.6,0.3c-0.2,0.2-0.2,0.4-0.2,1.3c0,0.9,0,1.1,0.2,1.3
	c0.1,0.2,0.3,0.3,0.6,0.3c0.3,0,0.5-0.1,0.6-0.3c0.2-0.2,0.2-0.4,0.2-1.3C105.8,48.9,105.8,48.7,105.6,48.5 M106.3,51.7
	c-0.3,0.3-0.7,0.5-1.3,0.5c-0.5,0-1-0.2-1.3-0.5c-0.5-0.5-0.5-1.1-0.5-1.9c0-0.8,0-1.4,0.5-1.9c0.3-0.3,0.7-0.5,1.3-0.5
	c0.5,0,0.9,0.2,1.3,0.5c0.5,0.5,0.5,1.1,0.5,1.9C106.8,50.6,106.8,51.2,106.3,51.7"/>
<path class="st0" d="M109.4,52.2c-1,0-1.7-0.7-1.7-1.7v-3.1h0.9v3.1c0,0.5,0.3,0.9,0.8,0.9c0.5,0,0.8-0.3,0.8-0.9v-3.1h0.9v3.1
	C111.1,51.6,110.3,52.2,109.4,52.2"/>
<polygon class="st0" points="113.9,48.3 113.9,52.2 113,52.2 113,48.3 111.8,48.3 111.8,47.4 115.2,47.4 115.2,48.3 "/>
<path class="st0" d="M119.1,52.2c-1,0-1.7-0.7-1.7-1.7v-3.1h0.9v3.1c0,0.5,0.3,0.9,0.8,0.9c0.5,0,0.8-0.3,0.8-0.9v-3.1h0.9v3.1
	C120.9,51.6,120.1,52.2,119.1,52.2"/>
<polygon class="st0" points="124.7,52.2 122.8,49.3 122.8,52.2 121.9,52.2 121.9,47.4 122.7,47.4 124.6,50.3 124.6,47.4 125.5,47.4 
	125.5,52.2 "/>
<path class="st0" d="M130,48.3h-0.9v1.3h0.9c0.4,0,0.7-0.3,0.7-0.6C130.7,48.5,130.4,48.3,130,48.3 M130,50.4h-0.9v1.8h-0.9v-4.7
	h1.8c1,0,1.6,0.7,1.6,1.5C131.6,49.7,131,50.4,130,50.4"/>
<path class="st0" d="M133.6,48.8l-0.6,1.7h1.2L133.6,48.8z M134.7,52.2l-0.3-0.8h-1.7l-0.3,0.8h-1l1.7-4.7h0.7l1.7,4.7H134.7z"/>
<polygon class="st0" points="137.8,50.2 137.8,52.2 136.9,52.2 136.9,50.2 135.5,47.4 136.5,47.4 137.4,49.4 138.3,47.4 139.3,47.4 
	"/>
<path class="st0" d="M141.1,52.2c-0.7,0-1.3-0.2-1.7-0.6L140,51c0.3,0.3,0.7,0.4,1.1,0.4c0.5,0,0.8-0.2,0.8-0.6c0-0.2,0-0.3-0.1-0.4
	c-0.1-0.1-0.2-0.1-0.4-0.2l-0.6-0.1c-0.4-0.1-0.7-0.2-0.9-0.4c-0.2-0.2-0.3-0.5-0.3-0.9c0-0.8,0.6-1.4,1.6-1.4
	c0.7,0,1.1,0.2,1.5,0.6l-0.6,0.6c-0.3-0.3-0.7-0.3-1-0.3c-0.5,0-0.7,0.3-0.7,0.6c0,0.1,0,0.2,0.1,0.3c0.1,0.1,0.2,0.2,0.4,0.2
	l0.6,0.1c0.4,0.1,0.7,0.2,0.9,0.4c0.3,0.2,0.4,0.6,0.4,1C142.9,51.7,142.1,52.2,141.1,52.2"/>
</svg>
